<?xml version="1.0" encoding="UTF-8" standalone="no"?>
<!-- Created with Inkscape (http://www.inkscape.org/) -->

<svg
   version="1.1"
   id="svg55"
   width="200"
   height="200"
   viewBox="0 0 200 200"
   xmlns="http://www.w3.org/2000/svg"
   xmlns:svg="http://www.w3.org/2000/svg">
  <defs
     id="defs59" />
  <g
     id="g61">
    <path
       style="fill:#ffc907;fill-opacity:1;stroke-width:0.329592"
       d="M 92.019298,178.45626 C 72.413403,176.70844 55.383177,166.90727 45.115657,151.46246 38.199019,141.05819 34.628321,129.19545 34.613222,116.5708 c -0.01137,-9.50802 1.689177,-17.0989 5.588116,-24.94416 2.724818,-5.48275 5.427829,-9.18511 9.638897,-13.202566 5.053709,-4.821358 10.482252,-8.057914 17.066987,-10.175527 3.580047,-1.151322 8.834433,-2.339729 9.113027,-2.061132 0.08736,0.08736 -0.816996,1.423038 -2.009682,2.968173 -8.300548,10.753427 -14.010385,23.245702 -16.013283,35.034692 -0.630413,3.71059 -0.698508,5.03465 -0.540407,10.50781 0.240948,8.34115 1.084916,12.04632 4.20419,18.45717 4.811783,9.88935 13.908194,17.4408 25.7736,21.39614 5.510749,1.83701 8.681127,2.27199 15.068513,2.06742 6.58815,-0.21099 9.13341,-0.80564 14.33726,-3.3496 12.97029,-6.34066 21.39913,-20.85166 23.93593,-41.20786 0.53262,-4.27396 0.53322,-16.78103 9.9e-4,-21.4235 C 139.15731,76.505373 135.30545,63.450488 129.0592,50.921999 123.90982,40.593568 118.94414,33.392968 109.66999,22.80622 c -3.18126,-3.631522 -4.14582,-5.007966 -3.77161,-5.382177 0.59904,-0.599037 10.71309,3.692476 15.22676,6.460899 7.96936,4.887933 16.15161,12.810829 22.47601,21.763581 11.02281,15.603779 18.12227,35.803497 19.86647,56.525067 0.43248,5.13791 0.43038,13.36837 -0.004,17.68066 -1.5984,15.84995 -8.13489,29.38414 -19.47663,40.32757 -9.8846,9.53746 -22.52993,15.73467 -36.2691,17.77474 -4.48993,0.66669 -11.36873,0.88566 -15.698095,0.4997 z"
       id="path582" />
    <path
       style="fill:#ffc907;fill-opacity:1;stroke-width:0.329592"
       d="m 96.937035,129.64622 c -3.052052,-0.36426 -6.549865,-2.12719 -8.916842,-4.49417 -7.738622,-7.73862 -5.486167,-20.29948 4.489718,-25.03701 2.296746,-1.09072 2.906826,-1.23392 5.741966,-1.3478 2.318253,-0.0931 3.694503,0.0232 5.112513,0.43207 7.58001,2.18564 12.59168,9.85344 11.32983,17.33454 -1.00006,5.929 -5.30825,10.87822 -10.87267,12.49043 -2.74443,0.79517 -4.274771,0.93342 -6.884515,0.62194 z"
       id="path653" />
  </g>
</svg>
